<svg width="278" height="249" viewBox="0 0 278 249" fill="none" xmlns="http://www.w3.org/2000/svg">
<path fill-rule="evenodd" clip-rule="evenodd" d="M184.001 229C140.369 229 105 193.632 105 150C105 106.368 140.369 71 184.001 71C227.631 71 263 106.368 263 150C263 193.632 227.631 229 184.001 229Z" fill="white"/>
<path d="M0.380615 171.267H139.447V144.596C139.447 107.027 170.126 76.5694 207.97 76.5694C245.815 76.5694 276.495 107.027 276.495 144.596V247.898H207.805V177.851" stroke="#1D1D1B" stroke-width="1.5"/>
<path d="M177 207.536L208.283 178L239 209" stroke="black" stroke-width="1.5"/>
<path fill-rule="evenodd" clip-rule="evenodd" d="M241 34.001C241 52.2242 226.226 67 208 67C189.772 67 175 52.2242 175 34.001C175 15.7758 189.772 1 208 1C226.226 1 241 15.7758 241 34.001Z" stroke="#1D1D1B" stroke-width="1.5"/>
<path fill-rule="evenodd" clip-rule="evenodd" d="M208 92C195.352 92 185 102.378 185 115.06L194.2 115.19C194.2 115.147 194.2 115.103 194.2 115.06C194.2 107.364 200.324 101.224 208 101.224C215.676 101.224 221.8 107.364 221.8 115.06C221.8 119.389 220.267 122.413 217.344 125.724C214.42 129.037 210.036 132.364 205.222 136.006C204.081 136.873 203.408 138.223 203.4 139.657V150.549L212.6 150.418V141.915C216.735 138.801 220.86 135.706 224.244 131.873C228.13 127.474 231 121.842 231 115.06C231 102.378 220.648 92 208 92Z" stroke="black" stroke-width="1.5"/>
<path fill-rule="evenodd" clip-rule="evenodd" d="M207.378 155.541C203.945 155.541 201.162 158.33 201.162 161.77C201.162 165.211 203.945 168 207.378 168C210.811 168 213.595 165.211 213.595 161.77C213.595 158.33 210.811 155.541 207.378 155.541Z" fill="#D0103A"/>
</svg>
