<?xml version="1.0" encoding="UTF-8"?>
<!DOCTYPE svg PUBLIC "-//W3C//DTD SVG 1.1//EN" "http://www.w3.org/Graphics/SVG/1.1/DTD/svg11.dtd">
<!-- Creator: CorelDRAW 2020 (64-Bit) -->
<svg xmlns="http://www.w3.org/2000/svg" xml:space="preserve" width="210mm" height="297mm"
    version="1.1"
    style="shape-rendering:geometricPrecision; text-rendering:geometricPrecision; image-rendering:optimizeQuality; fill-rule:evenodd; clip-rule:evenodd"
    viewBox="0 0 21000 29700"
    xmlns:xlink="http://www.w3.org/1999/xlink"
    xmlns:xodm="http://www.corel.com/coreldraw/odm/2003">
 <defs>
  <style type="text/css">
   <![CDATA[
    .fil0 {fill:#00E58D;fill-rule:nonzero}
    .fil1 {fill:#1D1D1B;fill-rule:nonzero}
   ]]>
  </style>
 </defs>
 <g id="Capa_x0020_1">
  <metadata id="CorelCorpID_0Corel-Layer"/>
  <g id="_2594024461280">
   <path class="fil0" d="M5928.63 15039.61l0 -466.9c0,-83.71 26.46,-152.68 79.41,-206.83 52.92,-54.19 121.29,-81.25 205,-81.25l921.21 0 0 265.93 -817.77 0c-66.46,0 -99.73,36.97 -99.73,110.84l0 407.14 704.99 0 0 265.91 -704.99 0 0 54.47 0 352.67c0,73.91 33.27,110.85 99.73,110.85l817.77 0 0 265.96 -921.21 0c-83.71,0 -152.08,-27.1 -205,-81.28 -52.95,-54.16 -79.41,-123.12 -79.41,-206.84l0 -435.89 0 -23.25c0,-144.07 144.04,-144.07 144.04,-144.07l0 -43.42c-144.04,0 -144.04,-144.04 -144.04,-144.04z"/>
   <polygon class="fil1" points="9248.97,16117.69 8716.98,16117.69 8495.33,14418.3 8450.99,14418.3 8229.34,16117.69 7697.35,16117.69 7409.21,14285.3 7704.72,14285.3 7948.56,15984.69 7992.9,15984.69 8207.18,14285.3 8739.13,14285.3 8953.41,15984.69 8997.76,15984.69 9241.56,14285.3 9537.12,14285.3 "/>
   <path class="fil1" d="M10709.58 15896.03c86.19,0 165.6,-15.99 238.27,-48.02 72.63,-31.99 134.86,-77.61 186.57,-136.7 51.72,-59.12 92.36,-129.89 121.92,-212.44 29.53,-82.48 44.31,-174.2 44.31,-275.2l0 -44.34c0,-98.46 -14.78,-188.98 -44.31,-271.53 -29.56,-82.48 -70.84,-153.32 -123.75,-212.41 -53.02,-59.12 -115.82,-105.3 -188.41,-138.53 -72.67,-33.27 -150.92,-49.89 -234.6,-49.89 -86.25,0 -165.03,16.05 -236.43,48.02 -71.47,32.03 -133.63,77.01 -186.58,134.86 -52.99,57.89 -94.2,128.06 -123.76,210.58 -29.56,82.51 -44.34,173.03 -44.34,271.53l0 59.08c0,209.37 54.78,372.57 164.39,489.51 109.57,116.98 251.81,175.48 426.72,175.48zm591.07 -88.66l-44.31 0c-59.12,123.19 -141.04,214.24 -245.67,273.37 -104.7,59.13 -214.9,88.65 -330.65,88.65 -120.69,0 -232.73,-20.32 -336.2,-60.96 -103.43,-40.6 -193.92,-100.93 -271.53,-181.01 -77.58,-80.01 -138.54,-177.9 -182.85,-293.68 -44.34,-115.75 -66.49,-249.95 -66.49,-402.7l0 -59.08c0,-150.21 22.15,-283.21 66.49,-398.99 44.31,-115.75 105.27,-213.64 182.85,-293.73 77.61,-80.01 168.1,-140.93 271.53,-182.84 103.47,-41.87 213.01,-62.83 328.83,-62.83 125.59,0 239.46,27.73 341.72,83.15 102.17,55.39 182.85,141.01 241.97,256.75l44.31 0 0 -288.18 288.19 0 0 1455.58c0,73.88 33.23,110.81 99.73,110.81l92.35 0 0 266 -195.79 0c-83.75,0 -152.12,-27.06 -205.03,-81.28 -52.99,-54.12 -79.45,-123.12 -79.45,-206.87l0 -22.16z"/>
   <polygon class="fil1" points="12199.68,15851.69 12199.68,15851.69 12199.68,13797.65 11556.88,13797.65 11556.88,13531.66 12487.83,13531.66 12487.83,15851.69 13152.82,15851.69 13152.82,16117.69 12199.68,16117.69 "/>
   <path class="fil1" d="M13985.77 15896.03c86.18,0 165.59,-15.99 238.26,-48.02 72.64,-31.99 134.86,-77.61 186.58,-136.7 51.71,-59.12 92.35,-129.89 121.92,-212.44 29.52,-82.48 44.31,-174.2 44.31,-275.2l0 -44.34c0,-98.46 -14.79,-188.98 -44.31,-271.53 -29.57,-82.48 -70.84,-153.32 -123.76,-212.41 -52.99,-59.12 -115.8,-105.3 -188.41,-138.53 -72.67,-33.27 -150.91,-49.89 -234.59,-49.89 -86.26,0 -165.03,16.05 -236.44,48.02 -71.47,32.03 -133.63,77.01 -186.58,134.86 -52.99,57.89 -94.19,128.06 -123.75,210.58 -29.57,82.51 -44.31,173.03 -44.31,271.53l0 59.08c0,209.37 54.75,372.57 164.36,489.51 109.57,116.98 251.81,175.48 426.72,175.48zm591.07 -88.66l-44.31 0c-59.13,123.19 -141.04,214.24 -245.67,273.37 -104.7,59.13 -214.91,88.65 -330.66,88.65 -120.68,0 -232.72,-20.32 -336.16,-60.96 -103.47,-40.6 -193.96,-100.93 -271.57,-181.01 -77.57,-80.01 -138.53,-177.9 -182.84,-293.68 -44.35,-115.75 -66.5,-249.95 -66.5,-402.7l0 -59.08c0,-150.21 22.15,-283.21 66.5,-398.99 44.31,-115.75 105.27,-213.64 182.84,-293.73 77.61,-80.01 168.1,-140.93 271.57,-182.84 103.44,-41.87 212.97,-62.83 328.79,-62.83 125.59,0 239.47,27.73 341.7,83.15 102.19,55.39 182.87,141.01 242,256.75l44.31 0 0 -288.18 288.18 0 0 1455.58c0,73.88 33.23,110.81 99.73,110.81l92.36 0 0 266 -195.79 0c-83.75,0 -152.12,-27.06 -205.04,-81.28 -52.99,-54.12 -79.44,-123.12 -79.44,-206.87l0 -22.16z"/>
  </g>
 </g>
</svg>