<?xml version="1.0" encoding="UTF-8"?> <svg xmlns="http://www.w3.org/2000/svg" xmlns:xlink="http://www.w3.org/1999/xlink" id="Livello_1" width="977.6397" height="223.7466" viewBox="0 0 977.6397 223.7466"><defs><clipPath id="clippath"><circle cx="111.8733" cy="111.8733" r="111.8733" style="fill:none; stroke-width:0px;"></circle></clipPath></defs><path d="m281.7407,113.4968c0-31.9287,13.5516-48.0596,34.2436-48.0596,12.9568,0,22.7406,5.951,28.2935,21.8165l-10.3794,4.2967c-3.8337-11.1059-8.9237-15.7338-18.1127-15.7338-14.8078,0-22.3435,12.8242-22.3435,38.0114,0,23.5329,7.2054,36.5566,21.154,36.5566,13.8819,0,19.3689-12.8242,19.3689-29.0209h-20.0963v-10.1799h31.0695v10.4453c0,22.8723-10.9732,39.135-30.8051,39.135-21.4185,0-32.3926-17.9151-32.3926-47.2672Z" style="fill:#0a5f2d; stroke-width:0px;"></path><path d="m363.1997,126.1892v-59.363h11.3703v59.363c0,16.3285,6.2803,24.1954,18.7083,24.1954s18.7083-7.8669,18.7083-24.1954v-59.363h11.3703v59.363c0,21.5511-9.7837,34.5748-30.0786,34.5748s-30.0786-13.0237-30.0786-34.5748Z" style="fill:#0a5f2d; stroke-width:0px;"></path><path d="m495.8923,159.3751l-7.6025-25.9796h-31.4008l-7.5357,25.9796h-11.8333l28.1618-92.5489h13.8819l28.1618,92.5489h-11.8333Zm-36.1604-35.7642h25.7151l-7.866-26.9036c-1.7851-6.0827-3.3717-11.7025-4.9582-17.5857-1.6524,5.8832-3.3048,11.503-5.09,17.5857l-7.801,26.9036Z" style="fill:#0a5f2d; stroke-width:0px;"></path><path d="m578.9379,133.1302v26.2449h-11.3703v-25.4507c0-10.3135-4.4294-14.3448-15.3367-14.3448h-15.4684v39.7956h-11.3712v-92.5489h24.856c18.7751,0,30.0786,7.9328,30.0786,25.5825,0,12.4948-5.6847,20.6252-15.6011,22.7406,9.4534,1.8519,14.2131,8.8587,14.2131,17.9809Zm-28.2276-23.2036c11.8333,0,18.1136-4.626,18.1136-17.2526,0-11.7006-6.2145-16.0631-18.5766-16.0631h-13.4848v33.3157h13.9477Z" style="fill:#0a5f2d; stroke-width:0px;"></path><path d="m602.2892,159.3751v-92.5489h21.2867c26.5743,0,39.7956,13.0895,39.7956,46.2735s-13.2213,46.2754-39.7956,46.2754h-21.2867Zm11.3703-9.9164h9.9164c19.2372,0,28.2276-9.0563,28.2276-36.359s-8.9905-36.3571-28.2276-36.3571h-9.9164v72.7161Z" style="fill:#0a5f2d; stroke-width:0px;"></path><path d="m684.4098,159.3751v-9.9164h20.5593v-72.7161h-20.5593v-9.9164h52.488v9.9164h-20.5593v72.7161h20.5593v9.9164h-52.488Z" style="fill:#0a5f2d; stroke-width:0px;"></path><path d="m813.2668,159.3751l-7.6025-25.9796h-31.4008l-7.5357,25.9796h-11.8333l28.1618-92.5489h13.8819l28.1618,92.5489h-11.8333Zm-36.1604-35.7642h25.7151l-7.866-26.9036c-1.7851-6.0827-3.3717-11.7025-4.9582-17.5857-1.6524,5.8832-3.3048,11.503-5.09,17.5857l-7.801,26.9036Z" style="fill:#0a5f2d; stroke-width:0px;"></path><path d="m887.4546,66.8262h10.115v92.5489h-12.4939l-28.9551-62.9333c-2.0495-4.2967-3.9005-8.727-5.5529-13.2871.3962,4.7597.6615,9.2539.6615,14.2131v62.0073h-10.115v-92.5489h12.4939l28.9551,62.9333c2.0495,4.2967,3.9005,8.7251,5.5529,13.2871-.3962-4.7597-.6615-9.2539-.6615-14.2131v-62.0073Z" style="fill:#0a5f2d; stroke-width:0px;"></path><path d="m917.5493,137.7581l9.8496-4.4943c4.6938,13.0876,11.4371,17.2526,21.0223,17.2526,11.1717,0,16.6588-5.552,16.7247-15.0713,0-8.1323-4.0981-12.4289-13.2871-15.8655l-9.1231-3.3067c-14.4107-5.089-21.6161-12.6247-21.5502-25.6483.0659-14.742,10.7756-25.1872,27.8305-25.1872,14.742,0,24.1295,6.7433,28.6238,20.8905l-9.8496,4.4284c-3.7678-10.9722-9.5852-15.0713-18.9718-15.0713-10.2467,0-16.2626,5.3544-16.3285,14.4107,0,8.6592,4.9573,12.0318,14.0804,15.5343l9.7837,3.6361c14.3448,5.2885,20.0963,13.1554,20.0963,25.7819-.0659,15.2049-10.3785,25.7161-28.2276,25.7161-15.7987,0-26.0454-7.9328-30.6733-23.006Z" style="fill:#0a5f2d; stroke-width:0px;"></path><circle cx="111.8733" cy="111.8733" r="111.8733" style="fill:#5fdc64; stroke-width:0px;"></circle><g style="clip-path:url(#clippath);"><path d="m80.3168,186.3958c0,34.2024,11.7598,65.6906,31.4043,90.7082,19.6446-25.0177,31.4043-56.5058,31.4043-90.7082s-11.7598-65.6901-31.4044-90.7078c-19.6445,25.0177-31.4042,56.5058-31.4042,90.7078Z" style="fill:#a0f091; stroke-width:0px;"></path><path d="m-4.0515,334.5728c-81.7046,0-148.1763-66.4717-148.1763-148.1768S-85.756,38.2193-4.0515,38.2193s148.1768,66.4717,148.1768,148.1768S77.6536,334.5728-4.0515,334.5728Zm0-294.3535c-80.6021,0-146.1763,65.5747-146.1763,146.1768S-84.6535,332.5728-4.0515,332.5728s146.1768-65.5747,146.1768-146.1768S76.5506,40.2193-4.0515,40.2193Z" style="fill:#0a5f2d; stroke-width:0px;"></path><path d="m-4.0515,334.5728c-73.207,0-132.7651-59.5586-132.7651-132.7656S-77.2585,69.0415-4.0515,69.041c73.207,0,132.7656,59.5586,132.7656,132.7656S69.1556,334.5728-4.0515,334.5728Zm0-263.5317c-72.104.0005-130.7651,58.6621-130.7651,130.7661S-76.1555,332.5728-4.0515,332.5728s130.7656-58.6616,130.7656-130.7661S68.053,71.041-4.0515,71.041Z" style="fill:#0a5f2d; stroke-width:0px;"></path><path d="m-4.0515,334.5728c-64.7095,0-117.354-52.645-117.354-117.3545S-68.7609,99.8633-4.0515,99.8633s117.3545,52.645,117.3545,117.3545c.0005,31.2969-12.2202,60.7539-34.4106,82.9443s-51.6465,34.4106-82.9438,34.4106Zm0-232.7095c-63.6064,0-115.354,51.748-115.354,115.355s51.7476,115.3545,115.354,115.3545c30.7627,0,59.7173-12.0127,81.5298-33.8252s33.8252-50.7671,33.8247-81.5298c0-63.6064-51.748-115.3545-115.3545-115.3545Z" style="fill:#0a5f2d; stroke-width:0px;"></path><path d="m-3.1945,334.9278c-56.8799,0-103.1548-46.2754-103.1548-103.1553S-60.0744,128.6167-3.1945,128.6167s103.1553,46.2754,103.1553,103.1553S53.6854,334.9278-3.1945,334.9278Zm0-204.311c-55.7769,0-101.1548,45.3784-101.1548,101.1558S-58.9714,332.9278-3.1945,332.9278s101.1553-45.3784,101.1553-101.1558S52.5828,130.6167-3.1945,130.6167Z" style="fill:#0a5f2d; stroke-width:0px;"></path><path d="m-4.051,334.5728c-47.7144,0-86.5327-38.8184-86.5327-86.5322S-51.7653,161.5078-4.0515,161.5078s86.5327,38.8184,86.5327,86.5322-38.8184,86.5327-86.5322,86.5327Zm-.0005-171.0649c-46.6113,0-84.5322,37.9214-84.5322,84.5327s37.9214,84.5322,84.5327,84.5322,84.5322-37.9214,84.5322-84.5327S42.5599,163.5078-4.0515,163.5078Z" style="fill:#0a5f2d; stroke-width:0px;"></path><path d="m-4.051,334.5728c-39.8535,0-72.2769-32.4233-72.2773-72.2769h0c0-39.854,32.4233-72.2773,72.2773-72.2773s72.2769,32.4233,72.2769,72.2769-32.4233,72.2773-72.2769,72.2773Zm-71.2773-72.2769h1c.0005,38.751,31.5269,70.2769,70.2773,70.2769s70.2769-31.5264,70.2769-70.2773S34.7,192.0186-4.051,192.0186s-70.2773,31.5264-70.2773,70.2773h-1Z" style="fill:#0a5f2d; stroke-width:0px;"></path><path d="m228.6575,334.5728c-81.7046,0-148.1763-66.4717-148.1763-148.1768S146.9529,38.2193,228.6575,38.2193s148.1768,66.4717,148.1768,148.1768-66.4717,148.1768-148.1768,148.1768Zm0-294.3535c-80.6021,0-146.1763,65.5747-146.1763,146.1768s65.5742,146.1768,146.1763,146.1768,146.1768-65.5747,146.1768-146.1768S309.2596,40.2193,228.6575,40.2193Z" style="fill:#0a5f2d; stroke-width:0px;"></path><path d="m228.6575,334.5728c-73.207,0-132.7651-59.5586-132.7651-132.7656s59.5581-132.7656,132.7651-132.7661c73.207,0,132.7656,59.5586,132.7656,132.7656s-59.5586,132.7661-132.7656,132.7661Zm0-263.5317c-72.104.0005-130.7651,58.6621-130.7651,130.7661s58.6611,130.7656,130.7651,130.7656,130.7656-58.6616,130.7656-130.7661-58.6611-130.7656-130.7656-130.7656Z" style="fill:#0a5f2d; stroke-width:0px;"></path><path d="m228.6575,334.5728c-64.709,0-117.354-52.645-117.354-117.3545-.0005-31.2969,12.2202-60.7539,34.4102-82.9443,22.1904-22.1899,51.647-34.4106,82.9438-34.4106,64.7095,0,117.3545,52.645,117.3545,117.3545s-52.645,117.355-117.3545,117.355Zm0-232.7095c-30.7627,0-59.7173,12.0127-81.5293,33.8252-21.8125,21.8125-33.8252,50.7671-33.8247,81.5298,0,63.6064,51.7476,115.3545,115.354,115.3545s115.3545-51.748,115.3545-115.355-51.748-115.3545-115.3545-115.3545Z" style="fill:#0a5f2d; stroke-width:0px;"></path><path d="m227.8812,334.8941c-56.8164,0-103.0405-46.2241-103.041-103.041,0-56.8174,46.2241-103.0415,103.041-103.0415s103.0415,46.2241,103.0415,103.041-46.2241,103.0415-103.0415,103.0415Zm0-204.0825c-55.7144,0-101.041,45.3271-101.041,101.0415.0005,55.7144,45.3271,101.041,101.041,101.041s101.0415-45.3271,101.0415-101.0415-45.3271-101.041-101.0415-101.041Z" style="fill:#0a5f2d; stroke-width:0px;"></path><path d="m228.658,334.5728c-39.854,0-72.2773-32.4233-72.2773-72.2769s32.4233-72.2773,72.2773-72.2773,72.2769,32.4233,72.2769,72.2769-32.4233,72.2773-72.2769,72.2773Zm0-142.5542c-38.751,0-70.2773,31.5264-70.2773,70.2773s31.5264,70.2769,70.2773,70.2769,70.2769-31.5264,70.2769-70.2773-31.5259-70.2769-70.2769-70.2769Z" style="fill:#0a5f2d; stroke-width:0px;"></path></g></svg> 