<?xml version="1.0" encoding="UTF-8"?>
<svg xmlns="http://www.w3.org/2000/svg" xmlns:xlink="http://www.w3.org/1999/xlink" width="500px" height="115px" viewBox="0 0 502 115" version="1.1">
<defs>
<clipPath id="clip1">
  <path d="M 41 49 L 74 49 L 74 115 L 41 115 Z M 41 49 "/>
</clipPath>
<clipPath id="clip2">
  <path d="M 114.847656 57.433594 C 114.847656 25.714844 89.136719 0 57.421875 0 C 25.710938 0 0 25.714844 0 57.433594 C 0 89.15625 25.710938 114.871094 57.421875 114.871094 C 89.136719 114.871094 114.847656 89.15625 114.847656 57.433594 Z M 114.847656 57.433594 "/>
</clipPath>
<clipPath id="clip3">
  <path d="M 0 19 L 74 19 L 74 115 L 0 115 Z M 0 19 "/>
</clipPath>
<clipPath id="clip4">
  <path d="M 114.847656 57.433594 C 114.847656 25.714844 89.136719 0 57.421875 0 C 25.710938 0 0 25.714844 0 57.433594 C 0 89.15625 25.710938 114.871094 57.421875 114.871094 C 89.136719 114.871094 114.847656 89.15625 114.847656 57.433594 Z M 114.847656 57.433594 "/>
</clipPath>
<clipPath id="clip5">
  <path d="M 0 35 L 67 35 L 67 115 L 0 115 Z M 0 35 "/>
</clipPath>
<clipPath id="clip6">
  <path d="M 114.847656 57.433594 C 114.847656 25.714844 89.136719 0 57.421875 0 C 25.710938 0 0 25.714844 0 57.433594 C 0 89.15625 25.710938 114.871094 57.421875 114.871094 C 89.136719 114.871094 114.847656 89.15625 114.847656 57.433594 Z M 114.847656 57.433594 "/>
</clipPath>
<clipPath id="clip7">
  <path d="M 0 51 L 59 51 L 59 115 L 0 115 Z M 0 51 "/>
</clipPath>
<clipPath id="clip8">
  <path d="M 114.847656 57.433594 C 114.847656 25.714844 89.136719 0 57.421875 0 C 25.710938 0 0 25.714844 0 57.433594 C 0 89.15625 25.710938 114.871094 57.421875 114.871094 C 89.136719 114.871094 114.847656 89.15625 114.847656 57.433594 Z M 114.847656 57.433594 "/>
</clipPath>
<clipPath id="clip9">
  <path d="M 0 66 L 52 66 L 52 115 L 0 115 Z M 0 66 "/>
</clipPath>
<clipPath id="clip10">
  <path d="M 114.847656 57.433594 C 114.847656 25.714844 89.136719 0 57.421875 0 C 25.710938 0 0 25.714844 0 57.433594 C 0 89.15625 25.710938 114.871094 57.421875 114.871094 C 89.136719 114.871094 114.847656 89.15625 114.847656 57.433594 Z M 114.847656 57.433594 "/>
</clipPath>
<clipPath id="clip11">
  <path d="M 0 82 L 43 82 L 43 115 L 0 115 Z M 0 82 "/>
</clipPath>
<clipPath id="clip12">
  <path d="M 114.847656 57.433594 C 114.847656 25.714844 89.136719 0 57.421875 0 C 25.710938 0 0 25.714844 0 57.433594 C 0 89.15625 25.710938 114.871094 57.421875 114.871094 C 89.136719 114.871094 114.847656 89.15625 114.847656 57.433594 Z M 114.847656 57.433594 "/>
</clipPath>
<clipPath id="clip13">
  <path d="M 0 97 L 36 97 L 36 115 L 0 115 Z M 0 97 "/>
</clipPath>
<clipPath id="clip14">
  <path d="M 114.847656 57.433594 C 114.847656 25.714844 89.136719 0 57.421875 0 C 25.710938 0 0 25.714844 0 57.433594 C 0 89.15625 25.710938 114.871094 57.421875 114.871094 C 89.136719 114.871094 114.847656 89.15625 114.847656 57.433594 Z M 114.847656 57.433594 "/>
</clipPath>
<clipPath id="clip15">
  <path d="M 41 19 L 115 19 L 115 115 L 41 115 Z M 41 19 "/>
</clipPath>
<clipPath id="clip16">
  <path d="M 114.847656 57.433594 C 114.847656 25.714844 89.136719 0 57.421875 0 C 25.710938 0 0 25.714844 0 57.433594 C 0 89.15625 25.710938 114.871094 57.421875 114.871094 C 89.136719 114.871094 114.847656 89.15625 114.847656 57.433594 Z M 114.847656 57.433594 "/>
</clipPath>
<clipPath id="clip17">
  <path d="M 49 35 L 115 35 L 115 115 L 49 115 Z M 49 35 "/>
</clipPath>
<clipPath id="clip18">
  <path d="M 114.847656 57.433594 C 114.847656 25.714844 89.136719 0 57.421875 0 C 25.710938 0 0 25.714844 0 57.433594 C 0 89.15625 25.710938 114.871094 57.421875 114.871094 C 89.136719 114.871094 114.847656 89.15625 114.847656 57.433594 Z M 114.847656 57.433594 "/>
</clipPath>
<clipPath id="clip19">
  <path d="M 57 51 L 115 51 L 115 115 L 57 115 Z M 57 51 "/>
</clipPath>
<clipPath id="clip20">
  <path d="M 114.847656 57.433594 C 114.847656 25.714844 89.136719 0 57.421875 0 C 25.710938 0 0 25.714844 0 57.433594 C 0 89.15625 25.710938 114.871094 57.421875 114.871094 C 89.136719 114.871094 114.847656 89.15625 114.847656 57.433594 Z M 114.847656 57.433594 "/>
</clipPath>
<clipPath id="clip21">
  <path d="M 64 66 L 115 66 L 115 115 L 64 115 Z M 64 66 "/>
</clipPath>
<clipPath id="clip22">
  <path d="M 114.847656 57.433594 C 114.847656 25.714844 89.136719 0 57.421875 0 C 25.710938 0 0 25.714844 0 57.433594 C 0 89.15625 25.710938 114.871094 57.421875 114.871094 C 89.136719 114.871094 114.847656 89.15625 114.847656 57.433594 Z M 114.847656 57.433594 "/>
</clipPath>
<clipPath id="clip23">
  <path d="M 80 97 L 115 97 L 115 115 L 80 115 Z M 80 97 "/>
</clipPath>
<clipPath id="clip24">
  <path d="M 114.847656 57.433594 C 114.847656 25.714844 89.136719 0 57.421875 0 C 25.710938 0 0 25.714844 0 57.433594 C 0 89.15625 25.710938 114.871094 57.421875 114.871094 C 89.136719 114.871094 114.847656 89.15625 114.847656 57.433594 Z M 114.847656 57.433594 "/>
</clipPath>
</defs>
<g id="surface1">
<path style=" stroke:none;fill-rule:nonzero;fill:rgb(3.921569%,37.254903%,17.647059%);fill-opacity:1;" d="M 144.617188 58.269531 C 144.617188 41.875 151.570312 33.59375 162.191406 33.59375 C 168.84375 33.59375 173.863281 36.648438 176.714844 44.796875 L 171.386719 47 C 169.417969 41.300781 166.808594 38.921875 162.089844 38.921875 C 154.488281 38.921875 150.621094 45.507812 150.621094 58.4375 C 150.621094 70.519531 154.320312 77.207031 161.480469 77.207031 C 168.605469 77.207031 171.421875 70.621094 171.421875 62.308594 L 161.105469 62.308594 L 161.105469 57.082031 L 177.054688 57.082031 L 177.054688 62.445312 C 177.054688 74.1875 171.421875 82.535156 161.242188 82.535156 C 150.25 82.535156 144.617188 73.335938 144.617188 58.269531 Z M 144.617188 58.269531 "/>
<path style=" stroke:none;fill-rule:nonzero;fill:rgb(3.921569%,37.254903%,17.647059%);fill-opacity:1;" d="M 186.425781 64.785156 L 186.425781 34.308594 L 192.265625 34.308594 L 192.265625 64.785156 C 192.265625 73.167969 195.488281 77.207031 201.867188 77.207031 C 208.246094 77.207031 211.46875 73.167969 211.46875 64.785156 L 211.46875 34.308594 L 217.304688 34.308594 L 217.304688 64.785156 C 217.304688 75.847656 212.285156 82.535156 201.867188 82.535156 C 191.449219 82.535156 186.425781 75.847656 186.425781 64.785156 Z M 186.425781 64.785156 "/>
<path style=" stroke:none;fill-rule:nonzero;fill:rgb(3.921569%,37.254903%,17.647059%);fill-opacity:1;" d="M 254.539062 81.820312 L 250.636719 68.484375 L 234.519531 68.484375 L 230.648438 81.820312 L 224.574219 81.820312 L 239.03125 34.308594 L 246.15625 34.308594 L 260.613281 81.820312 Z M 235.976562 63.460938 L 249.175781 63.460938 L 245.140625 49.648438 C 244.222656 46.527344 243.40625 43.640625 242.59375 40.621094 C 241.746094 43.640625 240.898438 46.527344 239.980469 49.648438 Z M 235.976562 63.460938 "/>
<path style=" stroke:none;fill-rule:nonzero;fill:rgb(3.921569%,37.254903%,17.647059%);fill-opacity:1;" d="M 297.164062 68.347656 L 297.164062 81.820312 L 291.328125 81.820312 L 291.328125 68.753906 C 291.328125 63.460938 289.054688 61.390625 283.457031 61.390625 L 275.515625 61.390625 L 275.515625 81.820312 L 269.679688 81.820312 L 269.679688 34.308594 L 282.4375 34.308594 C 292.074219 34.308594 297.875 38.378906 297.875 47.441406 C 297.875 53.855469 294.957031 58.03125 289.867188 59.117188 C 294.722656 60.066406 297.164062 63.664062 297.164062 68.347656 Z M 282.675781 56.433594 C 288.75 56.433594 291.972656 54.0625 291.972656 47.578125 C 291.972656 41.570312 288.78125 39.332031 282.4375 39.332031 L 275.515625 39.332031 L 275.515625 56.433594 Z M 282.675781 56.433594 "/>
<path style=" stroke:none;fill-rule:nonzero;fill:rgb(3.921569%,37.254903%,17.647059%);fill-opacity:1;" d="M 309.152344 81.820312 L 309.152344 34.308594 L 320.078125 34.308594 C 333.71875 34.308594 340.503906 41.027344 340.503906 58.066406 C 340.503906 75.101562 333.71875 81.820312 320.078125 81.820312 Z M 314.988281 76.730469 L 320.078125 76.730469 C 329.949219 76.730469 334.566406 72.082031 334.566406 58.066406 C 334.566406 44.046875 329.949219 39.398438 320.078125 39.398438 L 314.988281 39.398438 Z M 314.988281 76.730469 "/>
<path style=" stroke:none;fill-rule:nonzero;fill:rgb(3.921569%,37.254903%,17.647059%);fill-opacity:1;" d="M 351.300781 81.820312 L 351.300781 76.730469 L 361.855469 76.730469 L 361.855469 39.398438 L 351.300781 39.398438 L 351.300781 34.308594 L 378.242188 34.308594 L 378.242188 39.398438 L 367.691406 39.398438 L 367.691406 76.730469 L 378.242188 76.730469 L 378.242188 81.820312 Z M 351.300781 81.820312 "/>
<path style=" stroke:none;fill-rule:nonzero;fill:rgb(3.921569%,37.254903%,17.647059%);fill-opacity:1;" d="M 417.445312 81.820312 L 413.542969 68.484375 L 397.421875 68.484375 L 393.554688 81.820312 L 387.480469 81.820312 L 401.9375 34.308594 L 409.0625 34.308594 L 423.519531 81.820312 Z M 398.882812 63.460938 L 412.082031 63.460938 L 408.042969 49.648438 C 407.128906 46.527344 406.3125 43.640625 405.5 40.621094 C 404.652344 43.640625 403.804688 46.527344 402.886719 49.648438 Z M 398.882812 63.460938 "/>
<path style=" stroke:none;fill-rule:nonzero;fill:rgb(3.921569%,37.254903%,17.647059%);fill-opacity:1;" d="M 455.523438 34.308594 L 460.714844 34.308594 L 460.714844 81.820312 L 454.300781 81.820312 L 439.441406 49.511719 C 438.386719 47.304688 437.4375 45.03125 436.589844 42.691406 C 436.792969 45.132812 436.929688 47.441406 436.929688 49.988281 L 436.929688 81.820312 L 431.738281 81.820312 L 431.738281 34.308594 L 438.152344 34.308594 L 453.011719 66.617188 C 454.066406 68.824219 455.015625 71.097656 455.863281 73.4375 C 455.660156 70.996094 455.523438 68.6875 455.523438 66.140625 Z M 455.523438 34.308594 "/>
<path style=" stroke:none;fill-rule:nonzero;fill:rgb(3.921569%,37.254903%,17.647059%);fill-opacity:1;" d="M 470.972656 70.722656 L 476.027344 68.417969 C 478.4375 75.136719 481.898438 77.273438 486.816406 77.273438 C 492.550781 77.273438 495.367188 74.421875 495.402344 69.535156 C 495.402344 65.363281 493.296875 63.15625 488.582031 61.390625 L 483.898438 59.695312 C 476.503906 57.082031 472.804688 53.210938 472.835938 46.527344 C 472.871094 38.957031 478.367188 33.59375 487.121094 33.59375 C 494.691406 33.59375 499.507812 37.058594 501.816406 44.320312 L 496.757812 46.59375 C 494.824219 40.960938 491.839844 38.855469 487.019531 38.855469 C 481.761719 38.855469 478.675781 41.605469 478.640625 46.253906 C 478.640625 50.699219 481.183594 52.429688 485.867188 54.230469 L 490.890625 56.097656 C 498.253906 58.8125 501.203125 62.851562 501.203125 69.332031 C 501.171875 77.140625 495.878906 82.535156 486.714844 82.535156 C 478.605469 82.535156 473.347656 78.460938 470.972656 70.722656 Z M 470.972656 70.722656 "/>
<path style=" stroke:none;fill-rule:nonzero;fill:rgb(37.254903%,86.274511%,39.215687%);fill-opacity:1;" d="M 114.847656 57.433594 C 114.847656 25.714844 89.136719 0 57.421875 0 C 25.710938 0 0 25.714844 0 57.433594 C 0 89.15625 25.710938 114.871094 57.421875 114.871094 C 89.136719 114.871094 114.847656 89.15625 114.847656 57.433594 Z M 114.847656 57.433594 "/>
<g clip-path="url(#clip1)" clip-rule="nonzero">
<g clip-path="url(#clip2)" clip-rule="nonzero">
<path style=" stroke:none;fill-rule:nonzero;fill:rgb(62.7451%,94.117647%,56.862748%);fill-opacity:1;" d="M 41.226562 95.695312 C 41.226562 113.253906 47.261719 129.417969 57.34375 142.261719 C 67.429688 129.417969 73.464844 113.253906 73.464844 95.695312 C 73.464844 78.136719 67.429688 61.96875 57.34375 49.125 C 47.261719 61.96875 41.226562 78.136719 41.226562 95.695312 Z M 41.226562 95.695312 "/>
</g>
</g>
<g clip-path="url(#clip3)" clip-rule="nonzero">
<g clip-path="url(#clip4)" clip-rule="nonzero">
<path style=" stroke:none;fill-rule:nonzero;fill:rgb(3.921569%,37.254903%,17.647059%);fill-opacity:1;" d="M -2.078125 171.765625 C -44.019531 171.765625 -78.136719 137.640625 -78.136719 95.695312 C -78.136719 53.746094 -44.019531 19.621094 -2.078125 19.621094 C 39.859375 19.621094 73.976562 53.746094 73.976562 95.695312 C 73.976562 137.640625 39.859375 171.765625 -2.078125 171.765625 Z M -2.078125 20.648438 C -43.453125 20.648438 -77.109375 54.3125 -77.109375 95.695312 C -77.109375 137.074219 -43.453125 170.742188 -2.078125 170.742188 C 39.292969 170.742188 72.953125 137.074219 72.953125 95.695312 C 72.953125 54.3125 39.292969 20.648438 -2.078125 20.648438 Z M -2.078125 20.648438 "/>
</g>
</g>
<g clip-path="url(#clip5)" clip-rule="nonzero">
<g clip-path="url(#clip6)" clip-rule="nonzero">
<path style=" stroke:none;fill-rule:nonzero;fill:rgb(3.921569%,37.254903%,17.647059%);fill-opacity:1;" d="M -2.078125 171.765625 C -39.65625 171.765625 -70.226562 141.191406 -70.226562 103.605469 C -70.226562 66.023438 -39.65625 35.445312 -2.078125 35.445312 C 35.496094 35.445312 66.066406 66.023438 66.066406 103.605469 C 66.066406 141.191406 35.496094 171.765625 -2.078125 171.765625 Z M -2.078125 36.472656 C -39.089844 36.472656 -69.199219 66.589844 -69.199219 103.605469 C -69.199219 140.625 -39.089844 170.742188 -2.078125 170.742188 C 34.929688 170.742188 65.042969 140.625 65.042969 103.605469 C 65.042969 66.589844 34.929688 36.472656 -2.078125 36.472656 Z M -2.078125 36.472656 "/>
</g>
</g>
<g clip-path="url(#clip7)" clip-rule="nonzero">
<g clip-path="url(#clip8)" clip-rule="nonzero">
<path style=" stroke:none;fill-rule:nonzero;fill:rgb(3.921569%,37.254903%,17.647059%);fill-opacity:1;" d="M -2.078125 171.765625 C -35.292969 171.765625 -62.316406 144.738281 -62.316406 111.519531 C -62.316406 78.296875 -35.292969 51.269531 -2.078125 51.269531 C 31.136719 51.269531 58.15625 78.296875 58.15625 111.519531 C 58.15625 127.585938 51.886719 142.707031 40.496094 154.101562 C 29.105469 165.492188 13.984375 171.765625 -2.078125 171.765625 Z M -2.078125 52.296875 C -34.726562 52.296875 -61.289062 78.863281 -61.289062 111.519531 C -61.289062 144.171875 -34.726562 170.742188 -2.078125 170.742188 C 13.710938 170.742188 28.574219 164.574219 39.769531 153.375 C 50.964844 142.175781 57.132812 127.3125 57.132812 111.519531 C 57.132812 78.863281 30.570312 52.296875 -2.078125 52.296875 Z M -2.078125 52.296875 "/>
</g>
</g>
<g clip-path="url(#clip9)" clip-rule="nonzero">
<g clip-path="url(#clip10)" clip-rule="nonzero">
<path style=" stroke:none;fill-rule:nonzero;fill:rgb(3.921569%,37.254903%,17.647059%);fill-opacity:1;" d="M -1.640625 171.949219 C -30.835938 171.949219 -54.589844 148.191406 -54.589844 118.992188 C -54.589844 89.789062 -30.835938 66.03125 -1.640625 66.03125 C 27.554688 66.03125 51.308594 89.789062 51.308594 118.988281 C 51.308594 148.191406 27.554688 171.949219 -1.640625 171.949219 Z M -1.640625 67.058594 C -30.269531 67.058594 -53.5625 90.355469 -53.5625 118.992188 C -53.5625 147.625 -30.269531 170.921875 -1.640625 170.921875 C 26.988281 170.921875 50.28125 147.625 50.28125 118.988281 C 50.28125 90.355469 26.992188 67.058594 -1.640625 67.058594 Z M -1.640625 67.058594 "/>
</g>
</g>
<g clip-path="url(#clip11)" clip-rule="nonzero">
<g clip-path="url(#clip12)" clip-rule="nonzero">
<path style=" stroke:none;fill-rule:nonzero;fill:rgb(3.921569%,37.254903%,17.647059%);fill-opacity:1;" d="M -2.078125 171.765625 C -26.570312 171.765625 -46.496094 151.839844 -46.496094 127.34375 C -46.496094 102.847656 -26.570312 82.917969 -2.078125 82.917969 C 22.410156 82.917969 42.335938 102.847656 42.335938 127.34375 C 42.335938 151.835938 22.410156 171.765625 -2.078125 171.765625 Z M -2.078125 83.945312 C -26.003906 83.945312 -45.46875 103.414062 -45.46875 127.34375 C -45.46875 151.273438 -26.003906 170.742188 -2.078125 170.742188 C 21.847656 170.742188 41.308594 151.273438 41.308594 127.34375 C 41.308594 103.410156 21.84375 83.945312 -2.078125 83.945312 Z M -2.078125 83.945312 "/>
</g>
</g>
<g clip-path="url(#clip13)" clip-rule="nonzero">
<g clip-path="url(#clip14)" clip-rule="nonzero">
<path style=" stroke:none;fill-rule:nonzero;fill:rgb(3.921569%,37.254903%,17.647059%);fill-opacity:1;" d="M -2.078125 171.765625 C -22.535156 171.765625 -39.179688 155.121094 -39.179688 134.660156 C -39.179688 114.199219 -22.535156 97.554688 -2.078125 97.554688 C 18.378906 97.554688 35.019531 114.199219 35.019531 134.660156 C 35.019531 155.121094 18.378906 171.765625 -2.078125 171.765625 Z M -38.664062 134.660156 L -38.152344 134.660156 C -38.152344 154.554688 -21.96875 170.742188 -2.078125 170.742188 C 17.8125 170.742188 33.992188 154.554688 33.992188 134.660156 C 33.992188 114.765625 17.8125 98.582031 -2.078125 98.582031 C -21.96875 98.582031 -38.152344 114.765625 -38.152344 134.660156 Z M -38.664062 134.660156 "/>
</g>
</g>
<g clip-path="url(#clip15)" clip-rule="nonzero">
<g clip-path="url(#clip16)" clip-rule="nonzero">
<path style=" stroke:none;fill-rule:nonzero;fill:rgb(3.921569%,37.254903%,17.647059%);fill-opacity:1;" d="M 117.367188 171.765625 C 75.429688 171.765625 41.308594 137.640625 41.308594 95.695312 C 41.308594 53.746094 75.429688 19.621094 117.367188 19.621094 C 159.304688 19.621094 193.425781 53.746094 193.425781 95.695312 C 193.425781 137.640625 159.308594 171.765625 117.367188 171.765625 Z M 117.367188 20.648438 C 75.996094 20.648438 42.335938 54.3125 42.335938 95.695312 C 42.335938 137.074219 75.996094 170.742188 117.367188 170.742188 C 158.742188 170.742188 192.398438 137.074219 192.398438 95.695312 C 192.398438 54.3125 158.742188 20.648438 117.367188 20.648438 Z M 117.367188 20.648438 "/>
</g>
</g>
<g clip-path="url(#clip17)" clip-rule="nonzero">
<g clip-path="url(#clip18)" clip-rule="nonzero">
<path style=" stroke:none;fill-rule:nonzero;fill:rgb(3.921569%,37.254903%,17.647059%);fill-opacity:1;" d="M 117.367188 171.765625 C 79.792969 171.765625 49.222656 141.191406 49.222656 103.605469 C 49.222656 66.023438 79.792969 35.445312 117.367188 35.445312 C 154.945312 35.445312 185.515625 66.023438 185.515625 103.605469 C 185.515625 141.191406 154.945312 171.765625 117.367188 171.765625 Z M 117.367188 36.472656 C 80.359375 36.472656 50.246094 66.589844 50.246094 103.605469 C 50.246094 140.625 80.359375 170.742188 117.367188 170.742188 C 154.378906 170.742188 184.488281 140.625 184.488281 103.605469 C 184.488281 66.589844 154.378906 36.472656 117.367188 36.472656 Z M 117.367188 36.472656 "/>
</g>
</g>
<g clip-path="url(#clip19)" clip-rule="nonzero">
<g clip-path="url(#clip20)" clip-rule="nonzero">
<path style=" stroke:none;fill-rule:nonzero;fill:rgb(3.921569%,37.254903%,17.647059%);fill-opacity:1;" d="M 117.367188 171.765625 C 84.152344 171.765625 57.132812 144.738281 57.132812 111.519531 C 57.132812 95.449219 63.402344 80.328125 74.792969 68.933594 C 86.183594 57.542969 101.304688 51.269531 117.367188 51.269531 C 150.582031 51.269531 177.605469 78.296875 177.605469 111.519531 C 177.605469 144.738281 150.582031 171.765625 117.367188 171.765625 Z M 117.367188 52.296875 C 101.578125 52.296875 86.714844 58.464844 75.519531 69.660156 C 64.324219 80.859375 58.15625 95.726562 58.15625 111.519531 C 58.15625 144.171875 84.71875 170.742188 117.367188 170.742188 C 150.015625 170.742188 176.578125 144.171875 176.578125 111.519531 C 176.578125 78.863281 150.015625 52.296875 117.367188 52.296875 Z M 117.367188 52.296875 "/>
</g>
</g>
<g clip-path="url(#clip21)" clip-rule="nonzero">
<g clip-path="url(#clip22)" clip-rule="nonzero">
<path style=" stroke:none;fill-rule:nonzero;fill:rgb(3.921569%,37.254903%,17.647059%);fill-opacity:1;" d="M 116.96875 171.933594 C 87.804688 171.933594 64.078125 148.199219 64.078125 119.03125 C 64.078125 89.863281 87.804688 66.132812 116.96875 66.132812 C 146.132812 66.132812 169.859375 89.863281 169.859375 119.03125 C 169.859375 148.199219 146.132812 171.933594 116.96875 171.933594 Z M 116.96875 67.15625 C 88.371094 67.15625 65.105469 90.429688 65.105469 119.03125 C 65.105469 147.636719 88.371094 170.90625 116.96875 170.90625 C 145.566406 170.90625 168.832031 147.636719 168.832031 119.03125 C 168.832031 90.429688 145.566406 67.15625 116.96875 67.15625 Z M 116.96875 67.15625 "/>
</g>
</g>
<g clip-path="url(#clip23)" clip-rule="nonzero">
<g clip-path="url(#clip24)" clip-rule="nonzero">
<path style=" stroke:none;fill-rule:nonzero;fill:rgb(3.921569%,37.254903%,17.647059%);fill-opacity:1;" d="M 117.367188 171.765625 C 96.910156 171.765625 80.269531 155.121094 80.269531 134.660156 C 80.269531 114.199219 96.910156 97.554688 117.367188 97.554688 C 137.824219 97.554688 154.46875 114.199219 154.46875 134.660156 C 154.46875 155.121094 137.824219 171.765625 117.367188 171.765625 Z M 117.367188 98.582031 C 97.476562 98.582031 81.296875 114.765625 81.296875 134.660156 C 81.296875 154.554688 97.476562 170.742188 117.367188 170.742188 C 137.257812 170.742188 153.441406 154.554688 153.441406 134.660156 C 153.441406 114.765625 137.257812 98.582031 117.367188 98.582031 Z M 117.367188 98.582031 "/>
</g>
</g>
</g>
</svg>
